<mxfile host="Electron" agent="Mozilla/5.0 (Windows NT 10.0; Win64; x64) AppleWebKit/537.36 (KHTML, like Gecko) draw.io/28.2.5 Chrome/138.0.7204.251 Electron/37.6.1 Safari/537.36" version="28.2.5">
  <diagram name="Page-1" id="x_hMDUtF8JclDkiGLjga">
    <mxGraphModel dx="1042" dy="722" grid="1" gridSize="10" guides="1" tooltips="1" connect="1" arrows="1" fold="1" page="1" pageScale="1" pageWidth="827" pageHeight="583" math="0" shadow="0">
      <root>
        <mxCell id="0" />
        <mxCell id="1" parent="0" />
        <mxCell id="9wfjGzncV4hcB8wYV-B7-6" style="edgeStyle=orthogonalEdgeStyle;rounded=0;orthogonalLoop=1;jettySize=auto;html=1;exitX=1;exitY=0.5;exitDx=0;exitDy=0;entryX=0;entryY=0.5;entryDx=0;entryDy=0;" edge="1" parent="1" source="9wfjGzncV4hcB8wYV-B7-1" target="9wfjGzncV4hcB8wYV-B7-5">
          <mxGeometry relative="1" as="geometry">
            <mxPoint x="390" y="150.27586206896558" as="targetPoint" />
          </mxGeometry>
        </mxCell>
        <mxCell id="9wfjGzncV4hcB8wYV-B7-1" value="Start cleaning" style="rounded=0;whiteSpace=wrap;html=1;" vertex="1" parent="1">
          <mxGeometry x="200" y="120" width="120" height="60" as="geometry" />
        </mxCell>
        <mxCell id="9wfjGzncV4hcB8wYV-B7-10" style="edgeStyle=orthogonalEdgeStyle;rounded=0;orthogonalLoop=1;jettySize=auto;html=1;exitX=1;exitY=0.5;exitDx=0;exitDy=0;entryX=0;entryY=0.5;entryDx=0;entryDy=0;" edge="1" parent="1" source="9wfjGzncV4hcB8wYV-B7-5" target="9wfjGzncV4hcB8wYV-B7-7">
          <mxGeometry relative="1" as="geometry" />
        </mxCell>
        <mxCell id="9wfjGzncV4hcB8wYV-B7-11" value="Yes" style="edgeLabel;html=1;align=center;verticalAlign=middle;resizable=0;points=[];" vertex="1" connectable="0" parent="9wfjGzncV4hcB8wYV-B7-10">
          <mxGeometry x="0.0104" y="1" relative="1" as="geometry">
            <mxPoint as="offset" />
          </mxGeometry>
        </mxCell>
        <mxCell id="9wfjGzncV4hcB8wYV-B7-23" style="edgeStyle=orthogonalEdgeStyle;rounded=0;orthogonalLoop=1;jettySize=auto;html=1;exitX=1;exitY=0.5;exitDx=0;exitDy=0;entryX=0;entryY=0.5;entryDx=0;entryDy=0;" edge="1" parent="1" source="9wfjGzncV4hcB8wYV-B7-5" target="9wfjGzncV4hcB8wYV-B7-28">
          <mxGeometry relative="1" as="geometry">
            <mxPoint x="590" y="210" as="targetPoint" />
          </mxGeometry>
        </mxCell>
        <mxCell id="9wfjGzncV4hcB8wYV-B7-27" value="No" style="edgeLabel;html=1;align=center;verticalAlign=middle;resizable=0;points=[];" vertex="1" connectable="0" parent="9wfjGzncV4hcB8wYV-B7-23">
          <mxGeometry x="0.0242" y="-1" relative="1" as="geometry">
            <mxPoint as="offset" />
          </mxGeometry>
        </mxCell>
        <mxCell id="9wfjGzncV4hcB8wYV-B7-5" value="First Time?" style="rhombus;whiteSpace=wrap;html=1;" vertex="1" parent="1">
          <mxGeometry x="400" y="110" width="80" height="80" as="geometry" />
        </mxCell>
        <mxCell id="9wfjGzncV4hcB8wYV-B7-21" style="edgeStyle=orthogonalEdgeStyle;rounded=0;orthogonalLoop=1;jettySize=auto;html=1;exitX=0.5;exitY=0;exitDx=0;exitDy=0;entryX=0.25;entryY=0;entryDx=0;entryDy=0;dashed=1;" edge="1" parent="1" source="9wfjGzncV4hcB8wYV-B7-7" target="9wfjGzncV4hcB8wYV-B7-18">
          <mxGeometry relative="1" as="geometry" />
        </mxCell>
        <mxCell id="9wfjGzncV4hcB8wYV-B7-22" value="RTK" style="edgeLabel;html=1;align=center;verticalAlign=middle;resizable=0;points=[];" vertex="1" connectable="0" parent="9wfjGzncV4hcB8wYV-B7-21">
          <mxGeometry x="-0.2217" y="3" relative="1" as="geometry">
            <mxPoint y="-13" as="offset" />
          </mxGeometry>
        </mxCell>
        <mxCell id="9wfjGzncV4hcB8wYV-B7-35" style="edgeStyle=orthogonalEdgeStyle;rounded=0;orthogonalLoop=1;jettySize=auto;html=1;exitX=0.5;exitY=1;exitDx=0;exitDy=0;entryX=0.5;entryY=0;entryDx=0;entryDy=0;" edge="1" parent="1" source="9wfjGzncV4hcB8wYV-B7-7" target="9wfjGzncV4hcB8wYV-B7-12">
          <mxGeometry relative="1" as="geometry" />
        </mxCell>
        <mxCell id="9wfjGzncV4hcB8wYV-B7-7" value="Detect Obstacles and Send Location" style="rounded=0;whiteSpace=wrap;html=1;" vertex="1" parent="1">
          <mxGeometry x="590" y="70" width="120" height="60" as="geometry" />
        </mxCell>
        <mxCell id="9wfjGzncV4hcB8wYV-B7-15" style="edgeStyle=orthogonalEdgeStyle;rounded=0;orthogonalLoop=1;jettySize=auto;html=1;exitX=0.75;exitY=0;exitDx=0;exitDy=0;entryX=0;entryY=0.5;entryDx=0;entryDy=0;" edge="1" parent="1" source="9wfjGzncV4hcB8wYV-B7-8" target="9wfjGzncV4hcB8wYV-B7-1">
          <mxGeometry relative="1" as="geometry" />
        </mxCell>
        <mxCell id="9wfjGzncV4hcB8wYV-B7-16" value="App or&lt;div&gt;Button&lt;/div&gt;" style="edgeLabel;html=1;align=center;verticalAlign=middle;resizable=0;points=[];" vertex="1" connectable="0" parent="9wfjGzncV4hcB8wYV-B7-15">
          <mxGeometry x="-0.0128" y="1" relative="1" as="geometry">
            <mxPoint as="offset" />
          </mxGeometry>
        </mxCell>
        <mxCell id="9wfjGzncV4hcB8wYV-B7-19" style="edgeStyle=orthogonalEdgeStyle;rounded=0;orthogonalLoop=1;jettySize=auto;html=1;exitX=0.5;exitY=1;exitDx=0;exitDy=0;entryX=0.5;entryY=0;entryDx=0;entryDy=0;" edge="1" parent="1" source="9wfjGzncV4hcB8wYV-B7-8" target="9wfjGzncV4hcB8wYV-B7-18">
          <mxGeometry relative="1" as="geometry" />
        </mxCell>
        <mxCell id="9wfjGzncV4hcB8wYV-B7-32" style="edgeStyle=orthogonalEdgeStyle;rounded=0;orthogonalLoop=1;jettySize=auto;html=1;exitX=1;exitY=0.5;exitDx=0;exitDy=0;entryX=0.5;entryY=0;entryDx=0;entryDy=0;" edge="1" parent="1" source="9wfjGzncV4hcB8wYV-B7-8" target="9wfjGzncV4hcB8wYV-B7-31">
          <mxGeometry relative="1" as="geometry" />
        </mxCell>
        <mxCell id="9wfjGzncV4hcB8wYV-B7-39" style="edgeStyle=orthogonalEdgeStyle;rounded=0;orthogonalLoop=1;jettySize=auto;html=1;exitX=1;exitY=0.167;exitDx=0;exitDy=0;entryX=0;entryY=0.75;entryDx=0;entryDy=0;exitPerimeter=0;dashed=1;startArrow=classic;startFill=1;" edge="1" parent="1" source="9wfjGzncV4hcB8wYV-B7-8" target="9wfjGzncV4hcB8wYV-B7-34">
          <mxGeometry relative="1" as="geometry">
            <Array as="points">
              <mxPoint x="370" y="210" />
              <mxPoint x="370" y="425" />
            </Array>
          </mxGeometry>
        </mxCell>
        <mxCell id="9wfjGzncV4hcB8wYV-B7-40" value="Path corrections" style="edgeLabel;html=1;align=center;verticalAlign=middle;resizable=0;points=[];" vertex="1" connectable="0" parent="9wfjGzncV4hcB8wYV-B7-39">
          <mxGeometry x="-0.1568" y="-2" relative="1" as="geometry">
            <mxPoint y="109" as="offset" />
          </mxGeometry>
        </mxCell>
        <mxCell id="9wfjGzncV4hcB8wYV-B7-8" value="Base" style="rounded=1;whiteSpace=wrap;html=1;" vertex="1" parent="1">
          <mxGeometry x="30" y="200" width="120" height="60" as="geometry" />
        </mxCell>
        <mxCell id="9wfjGzncV4hcB8wYV-B7-53" style="edgeStyle=orthogonalEdgeStyle;rounded=0;orthogonalLoop=1;jettySize=auto;html=1;exitX=1;exitY=0.5;exitDx=0;exitDy=0;entryX=0;entryY=0.5;entryDx=0;entryDy=0;" edge="1" parent="1" source="9wfjGzncV4hcB8wYV-B7-12" target="9wfjGzncV4hcB8wYV-B7-8">
          <mxGeometry relative="1" as="geometry">
            <Array as="points">
              <mxPoint x="730" y="200" />
              <mxPoint x="730" y="20" />
              <mxPoint x="10" y="20" />
              <mxPoint x="10" y="230" />
            </Array>
          </mxGeometry>
        </mxCell>
        <mxCell id="9wfjGzncV4hcB8wYV-B7-54" value="Recharge and clean deposit" style="edgeLabel;html=1;align=center;verticalAlign=middle;resizable=0;points=[];" vertex="1" connectable="0" parent="9wfjGzncV4hcB8wYV-B7-53">
          <mxGeometry x="0.009" y="-1" relative="1" as="geometry">
            <mxPoint as="offset" />
          </mxGeometry>
        </mxCell>
        <mxCell id="9wfjGzncV4hcB8wYV-B7-12" value="Clean" style="rounded=0;whiteSpace=wrap;html=1;" vertex="1" parent="1">
          <mxGeometry x="590" y="170" width="120" height="60" as="geometry" />
        </mxCell>
        <mxCell id="9wfjGzncV4hcB8wYV-B7-20" style="edgeStyle=orthogonalEdgeStyle;rounded=0;orthogonalLoop=1;jettySize=auto;html=1;exitX=0.75;exitY=0;exitDx=0;exitDy=0;entryX=0.75;entryY=1;entryDx=0;entryDy=0;" edge="1" parent="1" source="9wfjGzncV4hcB8wYV-B7-18" target="9wfjGzncV4hcB8wYV-B7-8">
          <mxGeometry relative="1" as="geometry" />
        </mxCell>
        <mxCell id="9wfjGzncV4hcB8wYV-B7-18" value="Make location boundaries" style="rounded=0;whiteSpace=wrap;html=1;" vertex="1" parent="1">
          <mxGeometry x="30" y="320" width="120" height="60" as="geometry" />
        </mxCell>
        <mxCell id="9wfjGzncV4hcB8wYV-B7-36" style="edgeStyle=orthogonalEdgeStyle;rounded=0;orthogonalLoop=1;jettySize=auto;html=1;exitX=0.5;exitY=1;exitDx=0;exitDy=0;entryX=0.5;entryY=0;entryDx=0;entryDy=0;" edge="1" parent="1" source="9wfjGzncV4hcB8wYV-B7-28" target="9wfjGzncV4hcB8wYV-B7-34">
          <mxGeometry relative="1" as="geometry" />
        </mxCell>
        <mxCell id="9wfjGzncV4hcB8wYV-B7-28" value="Use pre-determined path walking" style="rounded=0;whiteSpace=wrap;html=1;" vertex="1" parent="1">
          <mxGeometry x="590" y="280" width="120" height="60" as="geometry" />
        </mxCell>
        <mxCell id="9wfjGzncV4hcB8wYV-B7-33" style="edgeStyle=orthogonalEdgeStyle;rounded=0;orthogonalLoop=1;jettySize=auto;html=1;exitX=0.25;exitY=0;exitDx=0;exitDy=0;entryX=1;entryY=0.75;entryDx=0;entryDy=0;" edge="1" parent="1" source="9wfjGzncV4hcB8wYV-B7-31" target="9wfjGzncV4hcB8wYV-B7-8">
          <mxGeometry relative="1" as="geometry">
            <Array as="points">
              <mxPoint x="230" y="245" />
            </Array>
          </mxGeometry>
        </mxCell>
        <mxCell id="9wfjGzncV4hcB8wYV-B7-31" value="Make pre-determined path walking" style="rounded=0;whiteSpace=wrap;html=1;" vertex="1" parent="1">
          <mxGeometry x="200" y="262" width="120" height="60" as="geometry" />
        </mxCell>
        <mxCell id="9wfjGzncV4hcB8wYV-B7-37" style="edgeStyle=orthogonalEdgeStyle;rounded=0;orthogonalLoop=1;jettySize=auto;html=1;exitX=0;exitY=0.5;exitDx=0;exitDy=0;entryX=0.997;entryY=0.328;entryDx=0;entryDy=0;entryPerimeter=0;dashed=1;" edge="1" parent="1" source="9wfjGzncV4hcB8wYV-B7-34" target="9wfjGzncV4hcB8wYV-B7-8">
          <mxGeometry relative="1" as="geometry">
            <Array as="points">
              <mxPoint x="490" y="410" />
              <mxPoint x="490" y="220" />
              <mxPoint x="150" y="220" />
            </Array>
          </mxGeometry>
        </mxCell>
        <mxCell id="9wfjGzncV4hcB8wYV-B7-38" value="RTK" style="edgeLabel;html=1;align=center;verticalAlign=middle;resizable=0;points=[];" vertex="1" connectable="0" parent="9wfjGzncV4hcB8wYV-B7-37">
          <mxGeometry x="-0.3465" y="-3" relative="1" as="geometry">
            <mxPoint x="-3" as="offset" />
          </mxGeometry>
        </mxCell>
        <mxCell id="9wfjGzncV4hcB8wYV-B7-42" style="edgeStyle=orthogonalEdgeStyle;rounded=0;orthogonalLoop=1;jettySize=auto;html=1;exitX=0.5;exitY=1;exitDx=0;exitDy=0;entryX=0.5;entryY=0;entryDx=0;entryDy=0;" edge="1" parent="1" source="9wfjGzncV4hcB8wYV-B7-34" target="9wfjGzncV4hcB8wYV-B7-41">
          <mxGeometry relative="1" as="geometry" />
        </mxCell>
        <mxCell id="9wfjGzncV4hcB8wYV-B7-34" value="Detect Obstacles and Send Location" style="rounded=0;whiteSpace=wrap;html=1;" vertex="1" parent="1">
          <mxGeometry x="590" y="380" width="120" height="60" as="geometry" />
        </mxCell>
        <mxCell id="9wfjGzncV4hcB8wYV-B7-51" style="edgeStyle=orthogonalEdgeStyle;rounded=0;orthogonalLoop=1;jettySize=auto;html=1;exitX=0;exitY=0.5;exitDx=0;exitDy=0;entryX=0;entryY=0.5;entryDx=0;entryDy=0;" edge="1" parent="1" source="9wfjGzncV4hcB8wYV-B7-41" target="9wfjGzncV4hcB8wYV-B7-8">
          <mxGeometry relative="1" as="geometry">
            <Array as="points">
              <mxPoint x="570" y="500" />
              <mxPoint x="570" y="570" />
              <mxPoint x="10" y="570" />
              <mxPoint x="10" y="230" />
            </Array>
          </mxGeometry>
        </mxCell>
        <mxCell id="9wfjGzncV4hcB8wYV-B7-52" value="Recharge and clean deposit" style="edgeLabel;html=1;align=center;verticalAlign=middle;resizable=0;points=[];" vertex="1" connectable="0" parent="9wfjGzncV4hcB8wYV-B7-51">
          <mxGeometry x="-0.2768" relative="1" as="geometry">
            <mxPoint as="offset" />
          </mxGeometry>
        </mxCell>
        <mxCell id="9wfjGzncV4hcB8wYV-B7-41" value="Clean" style="rounded=0;whiteSpace=wrap;html=1;" vertex="1" parent="1">
          <mxGeometry x="590" y="470" width="120" height="60" as="geometry" />
        </mxCell>
        <mxCell id="9wfjGzncV4hcB8wYV-B7-43" value="App" style="swimlane;fontStyle=0;childLayout=stackLayout;horizontal=1;startSize=30;horizontalStack=0;resizeParent=1;resizeParentMax=0;resizeLast=0;collapsible=1;marginBottom=0;whiteSpace=wrap;html=1;" vertex="1" parent="1">
          <mxGeometry x="200" y="390" width="140" height="160" as="geometry" />
        </mxCell>
        <mxCell id="9wfjGzncV4hcB8wYV-B7-44" value="Start / Stop" style="text;strokeColor=none;fillColor=none;align=left;verticalAlign=middle;spacingLeft=4;spacingRight=4;overflow=hidden;points=[[0,0.5],[1,0.5]];portConstraint=eastwest;rotatable=0;whiteSpace=wrap;html=1;" vertex="1" parent="9wfjGzncV4hcB8wYV-B7-43">
          <mxGeometry y="30" width="140" height="30" as="geometry" />
        </mxCell>
        <mxCell id="9wfjGzncV4hcB8wYV-B7-45" value="Visualize real time location" style="text;strokeColor=none;fillColor=none;align=left;verticalAlign=middle;spacingLeft=4;spacingRight=4;overflow=hidden;points=[[0,0.5],[1,0.5]];portConstraint=eastwest;rotatable=0;whiteSpace=wrap;html=1;" vertex="1" parent="9wfjGzncV4hcB8wYV-B7-43">
          <mxGeometry y="60" width="140" height="30" as="geometry" />
        </mxCell>
        <mxCell id="9wfjGzncV4hcB8wYV-B7-46" value="Visualize path and boundaries" style="text;strokeColor=none;fillColor=none;align=left;verticalAlign=middle;spacingLeft=4;spacingRight=4;overflow=hidden;points=[[0,0.5],[1,0.5]];portConstraint=eastwest;rotatable=0;whiteSpace=wrap;html=1;" vertex="1" parent="9wfjGzncV4hcB8wYV-B7-43">
          <mxGeometry y="90" width="140" height="30" as="geometry" />
        </mxCell>
        <mxCell id="9wfjGzncV4hcB8wYV-B7-47" value="Define to use or not current path walking" style="text;strokeColor=none;fillColor=none;align=left;verticalAlign=middle;spacingLeft=4;spacingRight=4;overflow=hidden;points=[[0,0.5],[1,0.5]];portConstraint=eastwest;rotatable=0;whiteSpace=wrap;html=1;" vertex="1" parent="9wfjGzncV4hcB8wYV-B7-43">
          <mxGeometry y="120" width="140" height="40" as="geometry" />
        </mxCell>
        <mxCell id="9wfjGzncV4hcB8wYV-B7-50" style="edgeStyle=orthogonalEdgeStyle;rounded=0;orthogonalLoop=1;jettySize=auto;html=1;exitX=0.5;exitY=0;exitDx=0;exitDy=0;entryX=1;entryY=1;entryDx=0;entryDy=0;startArrow=classic;startFill=1;" edge="1" parent="1" source="9wfjGzncV4hcB8wYV-B7-48" target="9wfjGzncV4hcB8wYV-B7-8">
          <mxGeometry relative="1" as="geometry">
            <Array as="points">
              <mxPoint x="100" y="440" />
              <mxPoint x="170" y="440" />
              <mxPoint x="170" y="260" />
            </Array>
          </mxGeometry>
        </mxCell>
        <mxCell id="9wfjGzncV4hcB8wYV-B7-48" value="Cloud Services" style="rounded=0;whiteSpace=wrap;html=1;" vertex="1" parent="1">
          <mxGeometry x="40" y="455" width="120" height="60" as="geometry" />
        </mxCell>
        <mxCell id="9wfjGzncV4hcB8wYV-B7-49" style="edgeStyle=orthogonalEdgeStyle;rounded=0;orthogonalLoop=1;jettySize=auto;html=1;exitX=0;exitY=0.5;exitDx=0;exitDy=0;entryX=1;entryY=0.5;entryDx=0;entryDy=0;startArrow=classic;startFill=1;" edge="1" parent="1" source="9wfjGzncV4hcB8wYV-B7-45" target="9wfjGzncV4hcB8wYV-B7-48">
          <mxGeometry relative="1" as="geometry" />
        </mxCell>
      </root>
    </mxGraphModel>
  </diagram>
</mxfile>
